<svg id="Layer_1" data-name="Layer 1" xmlns="http://www.w3.org/2000/svg" viewBox="0 0 25 25"><path id="Path_18142" data-name="Path 18142" d="M17.87,11.55H13.45V7.13a1,1,0,1,0-1.9,0v4.42H7.12a.92.92,0,0,0-1,.87v.08a.93.93,0,0,0,.89.95h4.49v4.42a.91.91,0,0,0,.89.95h.06a.93.93,0,0,0,.95-.94h0V13.45h4.42a.95.95,0,0,0,0-1.9Z" fill="#75787b"/><path id="Path_18143" data-name="Path 18143" d="M12.5,1.81A10.69,10.69,0,1,1,4.94,4.94,10.69,10.69,0,0,1,12.5,1.81m0-1.66A12.35,12.35,0,1,0,24.85,12.5,12.35,12.35,0,0,0,12.5.15Z" fill="#75787b"/></svg>