<svg id="Layer_1" data-name="Layer 1" xmlns="http://www.w3.org/2000/svg" viewBox="0 0 25 25"><g id="Icon_material-notifications-active" data-name="Icon material-notifications-active"><path d="M17.43,11.49a5,5,0,0,0-3.7-5.19V5.74a1.24,1.24,0,0,0-2.47-.07V6.3a5,5,0,0,0-3.7,5.19V15.6L5.93,17.24v.82H19.07v-.82L17.43,15.6Zm-4.93,9a1.23,1.23,0,0,0,.33,0,1.64,1.64,0,0,0,1.18-1,1.55,1.55,0,0,0,.12-.64H10.85a1.65,1.65,0,0,0,1.65,1.64Z" fill="none"/><path d="M12.5,5.51a.23.23,0,0,0-.23.23V7.09l-.77.18a4,4,0,0,0-2.93,4.22V16l-.29.29-.76.76h10l-.76-.76L16.43,16V11.49A4,4,0,0,0,13.5,7.27l-.77-.18V5.74a.23.23,0,0,0-.23-.23m0-1a1.23,1.23,0,0,1,1.23,1.23V6.3a5,5,0,0,1,3.7,5.19V15.6l1.64,1.64v.82H5.93v-.82L7.57,15.6V11.49a5,5,0,0,1,3.7-5.19V5.74A1.23,1.23,0,0,1,12.5,4.51ZM10.85,18.88h3.28a1.69,1.69,0,0,1-.12.64,1.66,1.66,0,0,1-1.18,1,1.84,1.84,0,0,1-.33,0A1.66,1.66,0,0,1,10.85,18.88Z" fill="#00b4e1"/></g></svg>