<svg id="Layer_1" data-name="Layer 1" xmlns="http://www.w3.org/2000/svg" viewBox="0 0 25 25"><g id="Icon_ionic-ios-barcode" data-name="Icon ionic-ios-barcode"><path id="Path_19285" data-name="Path 19285" d="M5.79,19.09h-2a.2.2,0,0,1-.2-.2h0V6.11a.2.2,0,0,1,.2-.2h2a.74.74,0,0,0,.74-.7.66.66,0,0,0-.2-.5.87.87,0,0,0-.6-.2H3a.81.81,0,0,0-.89.73s0,0,0,.07V19.69a.79.79,0,0,0,.75.81H5.77a.67.67,0,0,0,.53-1.15A.72.72,0,0,0,5.79,19.09Z" fill="#002d6e"/><path id="Path_19286" data-name="Path 19286" d="M22,4.51H19.23a.7.7,0,0,0-.73.67.5.5,0,0,0,0,.24.3.3,0,0,0,0,.1.71.71,0,0,0,.64.39h2a.2.2,0,0,1,.2.2h0V18.89a.2.2,0,0,1-.2.2h-2a.72.72,0,0,0-.73.69.67.67,0,0,0,.71.71H22a.77.77,0,0,0,.84-.7.49.49,0,0,0,0-.12V5.31a.77.77,0,0,0-.75-.8Z" fill="#002d6e"/><path id="Path_19287" data-name="Path 19287" d="M5.83,8.51a.71.71,0,0,0-.7.69v6.6a.7.7,0,1,0,1.4,0V9.2A.69.69,0,0,0,5.83,8.51Z" fill="#002d6e"/><path id="Path_19288" data-name="Path 19288" d="M19.17,16.5a.71.71,0,0,0,.7-.7V9.2a.7.7,0,0,0-1.4,0v6.6A.7.7,0,0,0,19.17,16.5Z" fill="#002d6e"/><path id="Path_19289" data-name="Path 19289" d="M16,6.91a.71.71,0,0,0-.7.72v9.74a.7.7,0,0,0,1.4,0h0V7.63A.7.7,0,0,0,16,6.91Z" fill="#002d6e"/><path id="Path_19290" data-name="Path 19290" d="M9,6.91a.71.71,0,0,0-.7.72v9.74a.7.7,0,0,0,1.4,0h0V7.63A.7.7,0,0,0,9,6.91Z" fill="#002d6e"/><path id="Path_19291" data-name="Path 19291" d="M12.5,7.71a.7.7,0,0,0-.7.7v8.17a.7.7,0,0,0,1.4,0h0V8.41A.7.7,0,0,0,12.5,7.71Z" fill="#002d6e"/></g></svg>