<svg xmlns="http://www.w3.org/2000/svg" width="42.566" height="26.119" viewBox="0 0 42.566 26.119"><defs><style>.a{fill:#00af00;}.b{fill:none;stroke:#00af00;stroke-dasharray:3;}</style></defs><g transform="translate(-6.746 -10.75)"><path class="a" d="M27.972,16.547a.614.614,0,0,0,0-.853l-2.6-2.756a.566.566,0,0,0-.42-.184h0a.566.566,0,0,0-.42.184l-8.727,9.069,3.465,3.557Z" transform="translate(7.85 1.304)"/><path class="a" d="M10.4,17.881a.572.572,0,0,0-.84,0L6.924,20.6a.618.618,0,0,0,0,.866l8.294,8.531a2.555,2.555,0,0,0,1.732.866,2.72,2.72,0,0,0,1.719-.84l.013-.013L20.441,28.2Z" transform="translate(0 5.587)"/><path class="b" d="M43.9,14.19l-2.6-2.756a.566.566,0,0,0-.42-.184h0a.566.566,0,0,0-.42.184L22.377,30.161,15.8,23.39a.572.572,0,0,0-.84,0l-2.638,2.717a.618.618,0,0,0,0,.866L20.618,35.5a2.555,2.555,0,0,0,1.732.866,2.72,2.72,0,0,0,1.719-.84l.013-.013L43.9,15.03A.611.611,0,0,0,43.9,14.19Z" transform="translate(4.679 0)"/></g></svg>