<svg id="Layer_1" data-name="Layer 1" xmlns="http://www.w3.org/2000/svg" viewBox="0 0 25 25"><path id="Icon_awesome-expand-2" data-name="Icon awesome-expand-2" d="M3.14,9.32V4.14a1,1,0,0,1,1-1H9.32a.5.5,0,0,1,.5.5V5.31a.5.5,0,0,1-.5.5H5.81V9.32a.5.5,0,0,1-.5.5H3.64A.5.5,0,0,1,3.14,9.32Zm12-5.68V5.31a.5.5,0,0,0,.5.5h3.51V9.32a.5.5,0,0,0,.5.5h1.67a.5.5,0,0,0,.5-.5V4.14a1,1,0,0,0-1-1H15.68a.5.5,0,0,0-.5.5Zm6.18,11.54H19.69a.5.5,0,0,0-.5.5v3.51H15.68a.5.5,0,0,0-.5.5v1.67a.5.5,0,0,0,.5.5h5.18a1,1,0,0,0,1-1V15.68a.51.51,0,0,0-.5-.51h0ZM9.83,21.36V19.69a.5.5,0,0,0-.5-.5H5.81V15.68a.5.5,0,0,0-.5-.5H3.64a.5.5,0,0,0-.5.5v5.18a1,1,0,0,0,1,1H9.32a.5.5,0,0,0,.51-.5Z" fill="#fff"/></svg>